<svg width="50" height="57" viewBox="0 0 50 57" fill="none" xmlns="http://www.w3.org/2000/svg">
<path d="M21.8 8.35001C22.1728 7.85206 22.6353 7.44664 23.1575 7.15989C23.6798 6.87315 24.2502 6.71145 24.832 6.68522C25.4138 6.659 25.9941 6.76883 26.5355 7.00764C27.0768 7.24645 27.5672 7.60893 27.975 8.07169L28.2 8.35001L36.3937 19.2926H42.6125C43.0497 19.2915 43.4822 19.3933 43.8816 19.5913C44.281 19.7892 44.6383 20.0789 44.9302 20.4413C45.2221 20.8036 45.4419 21.2306 45.5753 21.6941C45.7087 22.1576 45.7526 22.6473 45.7042 23.131L45.5125 24.9076L45.3042 26.6239L45.1333 27.9088L44.9354 29.2888L44.7104 30.7384L44.4562 32.2413L44.1729 33.7744C44.0229 34.5467 43.8625 35.3214 43.6896 36.0914C43.2283 38.1278 42.6493 40.1289 41.9562 42.0822L41.4958 43.3346L41.05 44.4664L40.6292 45.473L40.4333 45.923L39.9146 47.0594C39.2479 48.4742 37.9896 49.3092 36.6583 49.4298L36.325 49.4437H13.6562C12.9279 49.45 12.2116 49.2358 11.5842 48.8241C10.9567 48.4123 10.4415 47.8184 10.0937 47.1058L9.61042 46.0621L9.23542 45.204C9.16864 45.0459 9.10267 44.8874 9.0375 44.7285L8.62083 43.6872C7.66967 41.2274 6.89774 38.6866 6.3125 36.0891C6.19945 35.5847 6.09111 35.0791 5.9875 34.5722L5.69167 33.0693L5.42708 31.5989L5.19375 30.1771L4.98542 28.8157L4.80417 27.5308L4.65 26.341L4.4625 24.7569L4.325 23.4673C4.31299 23.3491 4.30118 23.2308 4.28958 23.1125C4.24591 22.6567 4.28423 22.1958 4.4023 21.7567C4.52037 21.3176 4.71582 20.9091 4.97726 20.555C5.23869 20.2009 5.56086 19.9083 5.92497 19.6944C6.28907 19.4804 6.68781 19.3493 7.09792 19.3088L7.38125 19.2926H13.6083L21.8 8.35001ZM41.4229 23.9312H8.56875L8.69792 25.0537L8.85625 26.3247L9.04792 27.7256L9.27292 29.2285C9.35625 29.7434 9.44167 30.2722 9.53542 30.8103L9.83333 32.4501C9.99167 33.2804 10.1667 34.1246 10.3542 34.9642C10.8831 37.3085 11.5798 39.6019 12.4375 41.8224L12.8458 42.8452L13.225 43.7359L13.5646 44.485L13.7146 44.8051H36.2708L36.5917 44.1023L36.9604 43.2558L37.3646 42.2747C38.1292 40.3613 39.0042 37.8262 39.6458 34.9642C39.9062 33.8045 40.1375 32.6263 40.3437 31.469L40.6354 29.7573L40.8854 28.1129L40.9958 27.3267L41.1937 25.8493L41.3542 24.5273L41.4229 23.9312ZM20.8042 30.5088L21.8458 37.4667C21.9186 38.0643 21.7794 38.6699 21.4578 39.1551C21.1362 39.6404 20.6575 39.9671 20.1232 40.0661C19.5889 40.165 19.0409 40.0284 18.5956 39.6851C18.1502 39.3419 17.8424 38.8191 17.7375 38.2275L16.6958 31.2695C16.6418 30.9649 16.6433 30.6514 16.7001 30.3475C16.757 30.0435 16.868 29.7554 17.0268 29.5001C17.1855 29.2448 17.3886 29.0276 17.6242 28.8614C17.8597 28.6952 18.1228 28.5833 18.3979 28.5323C18.673 28.4814 18.9544 28.4925 19.2256 28.5649C19.4968 28.6373 19.7522 28.7696 19.9766 28.9539C20.201 29.1382 20.3899 29.3708 20.532 29.6379C20.6742 29.905 20.7667 30.2011 20.8042 30.5088ZM31.35 28.5698L31.5917 28.6C32.0959 28.6926 32.552 28.9884 32.8731 29.431C33.1943 29.8736 33.358 30.4322 33.3333 31.0005L33.3062 31.2695L32.2646 38.2275C32.1762 38.8099 31.8916 39.3329 31.4687 39.6896C31.0459 40.0464 30.5167 40.2101 29.9891 40.1474C29.4615 40.0847 28.9753 39.8002 28.6297 39.3521C28.2841 38.9039 28.105 38.3258 28.1292 37.7358L28.1562 37.4667L29.1979 30.5088C29.2811 29.9483 29.5461 29.4412 29.9428 29.0838C30.3395 28.7264 30.8402 28.5435 31.35 28.5698ZM25 11.3187L19.0312 19.2926H30.9687L25 11.3187Z" fill="white"/>
</svg>
