<svg width="39" height="38" viewBox="0 0 39 38" fill="none" xmlns="http://www.w3.org/2000/svg">
<path d="M3.64912 21.7388L4.99142 24.3794C4.07164 25.2835 3.56289 26.268 3.56289 27.2668C3.56289 30.9579 10.5388 34.4423 19.3715 34.4423C28.2042 34.4423 35.1801 30.9579 35.1801 27.2668C35.1801 26.268 34.6685 25.2864 33.7516 24.3823L35.1198 21.7618C36.9737 23.3117 38.0544 25.1888 38.0544 27.2668C38.0544 33.0847 29.5867 37.3125 19.3715 37.3125C9.15627 37.3125 0.688599 33.0847 0.688599 27.2668C0.688599 25.1773 1.78083 23.2945 3.64912 21.7388Z" fill="#00897B"/>
<path d="M3.64912 13.1283L4.99142 15.7688C4.07164 16.6758 3.56289 17.6603 3.56289 18.6563C3.56289 22.3473 10.5388 25.8317 19.3715 25.8317C28.2042 25.8317 35.1801 22.3473 35.1801 18.6563C35.1801 17.6574 34.6685 16.6758 33.7516 15.7717L35.1198 13.1512C36.9737 14.7011 38.0544 16.5782 38.0544 18.6563C38.0544 24.4741 29.5867 28.7019 19.3715 28.7019C9.15627 28.7019 0.688599 24.4741 0.688599 18.6563C0.688599 16.5668 1.78083 14.6839 3.64912 13.1283Z" fill="#00897B"/>
<path d="M19.3715 20.0913C9.15627 20.0913 0.688599 15.8636 0.688599 10.0457C0.688599 4.22779 9.15627 0 19.3715 0C29.5867 0 38.0544 4.22779 38.0544 10.0457C38.0544 15.8636 29.5867 20.0913 19.3715 20.0913ZM19.3715 17.2212C28.2042 17.2212 35.1801 13.7367 35.1801 10.0457C35.1801 6.35461 28.2042 2.87019 19.3715 2.87019C10.5388 2.87019 3.56289 6.35461 3.56289 10.0457C3.56289 13.7367 10.5388 17.2212 19.3715 17.2212Z" fill="#00897B"/>
</svg>
