<svg width="27" height="30" viewBox="0 0 27 30" fill="none" xmlns="http://www.w3.org/2000/svg">
<path d="M11.2045 2.55038C9.38402 2.55038 7.60443 3.15137 6.09075 4.27733C4.57708 5.4033 3.39732 7.00368 2.70065 8.8761C2.00399 10.7485 1.82171 12.8089 2.17687 14.7966C2.53202 16.7844 3.40867 18.6102 4.69594 20.0433C5.98321 21.4764 7.62329 22.4523 9.40879 22.8477C11.1943 23.2431 13.045 23.0402 14.7269 22.2646C16.4088 21.489 17.8463 20.1756 18.8578 18.4905C19.8692 16.8054 20.409 14.8242 20.409 12.7975C20.4088 10.0798 19.439 7.47355 17.7129 5.55189C15.9867 3.63022 13.6456 2.55056 11.2045 2.55038Z" stroke="#00897B" stroke-width="3.125" stroke-miterlimit="10"/>
<path d="M18.0717 20.4426L24.5 27.599" stroke="#00897B" stroke-width="3.125" stroke-miterlimit="10" stroke-linecap="round"/>
</svg>
