<svg width="14" height="22" viewBox="0 0 14 22" fill="none" xmlns="http://www.w3.org/2000/svg">
<path d="M6.65 10.0473C6.02011 10.0473 5.41602 9.76872 4.97062 9.27287C4.52522 8.77702 4.275 8.1045 4.275 7.40327C4.275 6.70203 4.52522 6.02951 4.97062 5.53366C5.41602 5.03781 6.02011 4.75924 6.65 4.75924C7.27989 4.75924 7.88398 5.03781 8.32938 5.53366C8.77478 6.02951 9.025 6.70203 9.025 7.40327C9.025 7.75048 8.96357 8.0943 8.84421 8.41509C8.72486 8.73588 8.54992 9.02735 8.32938 9.27287C8.10884 9.51839 7.84702 9.71315 7.55887 9.84603C7.27073 9.9789 6.96189 10.0473 6.65 10.0473ZM6.65 0C4.88631 0 3.19486 0.779985 1.94774 2.16837C0.700623 3.55675 0 5.4398 0 7.40327C0 12.9557 6.65 21.1522 6.65 21.1522C6.65 21.1522 13.3 12.9557 13.3 7.40327C13.3 5.4398 12.5994 3.55675 11.3523 2.16837C10.1051 0.779985 8.41369 0 6.65 0Z" fill="#00897B"/>
</svg>
