<svg width="50" height="50" viewBox="0 0 50 50" fill="none" xmlns="http://www.w3.org/2000/svg">
<g clip-path="url(#clip0_2011_515)">
<path d="M25 4.16675C36.5062 4.16675 45.8333 13.4938 45.8333 25.0001C45.8333 36.5063 36.5062 45.8334 25 45.8334C13.4937 45.8334 4.16666 36.5063 4.16666 25.0001C4.16666 13.4938 13.4937 4.16675 25 4.16675ZM25 8.33341C20.5797 8.33341 16.3405 10.0894 13.2149 13.215C10.0893 16.3406 8.33332 20.5798 8.33332 25.0001C8.33332 29.4204 10.0893 33.6596 13.2149 36.7852C16.3405 39.9108 20.5797 41.6667 25 41.6667C29.4203 41.6667 33.6595 39.9108 36.7851 36.7852C39.9107 33.6596 41.6667 29.4204 41.6667 25.0001C41.6667 20.5798 39.9107 16.3406 36.7851 13.215C33.6595 10.0894 29.4203 8.33341 25 8.33341ZM26.0417 27.0834C26.5727 27.084 27.0834 27.2873 27.4695 27.6518C27.8556 28.0164 28.088 28.5146 28.1191 29.0447C28.1502 29.5747 27.9778 30.0967 27.6369 30.5039C27.2961 30.9111 26.8127 31.1728 26.2854 31.2355L26.0417 31.2501H18.9708L17.2354 34.3522C16.978 34.8202 16.5507 35.1715 16.0417 35.3335C15.5327 35.4954 14.981 35.4557 14.5004 35.2225C14.0199 34.9894 13.6472 34.5805 13.4595 34.0804C13.2718 33.5804 13.2833 33.0273 13.4917 32.5355L13.6 32.3147L14.1958 31.2522H13.125C12.5908 31.2564 12.0753 31.0552 11.6852 30.6902C11.2951 30.3252 11.0601 29.8243 11.0288 29.2909C10.9975 28.7576 11.1723 28.2326 11.517 27.8245C11.8618 27.4164 12.3502 27.1563 12.8812 27.098L13.125 27.0834H26.0417ZM29.9854 20.8584L33.4708 27.0834H36.875C37.4275 27.0834 37.9574 27.3029 38.3481 27.6936C38.7388 28.0843 38.9583 28.6142 38.9583 29.1667C38.9583 29.7193 38.7388 30.2492 38.3481 30.6399C37.9574 31.0306 37.4275 31.2501 36.875 31.2501H35.8042L36.4021 32.3167C36.6651 32.7983 36.7274 33.3642 36.5757 33.8916C36.4239 34.4189 36.0702 34.865 35.5914 35.1331C35.1126 35.4011 34.5474 35.4695 34.0185 35.3233C33.4896 35.1771 33.0398 34.8281 32.7667 34.3522L26.35 22.8938C26.087 22.4122 26.0246 21.8463 26.1764 21.319C26.3282 20.7917 26.6819 20.3456 27.1607 20.0775C27.6395 19.8094 28.2047 19.7411 28.7336 19.8873C29.2625 20.0335 29.7123 20.3825 29.9854 20.8584ZM24.7354 11.4834L25 11.9563L25.2646 11.4834C25.5345 11.0011 25.985 10.6457 26.5169 10.4954C27.0488 10.3452 27.6187 10.4125 28.101 10.6824C28.5834 10.9523 28.9388 11.4028 29.089 11.9347C29.2392 12.4666 29.172 13.0365 28.9021 13.5188L22.4854 24.9772C22.2123 25.4531 21.7625 25.8021 21.2336 25.9483C20.7047 26.0945 20.1395 26.0261 19.6607 25.7581C19.1819 25.49 18.8282 25.0439 18.6764 24.5166C18.5246 23.9892 18.587 23.4233 18.85 22.9417L22.6125 16.2209L21.1 13.5188C20.9629 13.2799 20.8745 13.0162 20.84 12.743C20.8055 12.4697 20.8255 12.1923 20.8989 11.9268C20.9723 11.6613 21.0976 11.413 21.2676 11.1963C21.4376 10.9796 21.6489 10.7987 21.8892 10.6641C22.1295 10.5296 22.3941 10.444 22.6678 10.4124C22.9414 10.3807 23.2186 10.4037 23.4832 10.4799C23.7479 10.5561 23.9949 10.684 24.2098 10.8563C24.4248 11.0285 24.6034 11.2417 24.7354 11.4834Z" fill="black"/>
</g>
<defs>
<clipPath id="clip0_2011_515">
<rect width="50" height="50" fill="white"/>
</clipPath>
</defs>
</svg>
