<svg width="42" height="32" viewBox="0 0 42 32" fill="none" xmlns="http://www.w3.org/2000/svg">
<path d="M34.8542 1.1042L32.1875 3.18754L20.8333 11.625L9.47917 3.1042L6.8125 1.02087C6.18428 0.501172 5.4174 0.177203 4.60685 0.089099C3.79631 0.000994891 2.97773 0.152628 2.25252 0.525211C1.52731 0.897795 0.927348 1.47496 0.52696 2.18519C0.126571 2.89543 -0.0566481 3.70752 8.42847e-07 4.52087V28.6667C8.42847e-07 29.4181 0.298512 30.1388 0.829865 30.6702C1.36122 31.2015 2.08189 31.5 2.83333 31.5H9.47917V15.4167L20.8333 23.9375L32.1875 15.4167V31.5H38.8333C39.5848 31.5 40.3055 31.2015 40.8368 30.6702C41.3682 30.1388 41.6667 29.4181 41.6667 28.6667V4.52087C41.7058 3.71454 41.5098 2.91421 41.1026 2.21717C40.6954 1.52012 40.0944 0.956383 39.3728 0.594475C38.6512 0.232567 37.84 0.0880767 37.0378 0.178568C36.2356 0.269058 35.477 0.590633 34.8542 1.1042Z" fill="black"/>
</svg>
