<svg width="41" height="39" viewBox="0 0 41 39" fill="none" xmlns="http://www.w3.org/2000/svg">
<path d="M9.16665 5.002C9.16609 6.10707 8.72658 7.16666 7.94479 7.94767C7.16299 8.72868 6.10297 9.16714 4.9979 9.16659C3.89283 9.16603 2.83324 8.72652 2.05223 7.94472C1.27122 7.16293 0.832761 6.1029 0.833314 4.99784C0.833866 3.89277 1.27338 2.83318 2.05517 2.05217C2.83697 1.27116 3.89699 0.8327 5.00206 0.833252C6.10713 0.833805 7.16672 1.27332 7.94773 2.05511C8.72874 2.83691 9.1672 3.89693 9.16665 5.002ZM9.29165 12.252H0.958313V38.3353H9.29165V12.252ZM22.4583 12.252H14.1666V38.3353H22.375V24.6478C22.375 17.0228 32.3125 16.3145 32.3125 24.6478V38.3353H40.5416V21.8145C40.5416 8.96033 25.8333 9.4395 22.375 15.752L22.4583 12.252Z" fill="black"/>
</svg>
