<svg width="43" height="36" viewBox="0 0 43 36" fill="none" xmlns="http://www.w3.org/2000/svg">
<path d="M29.8 5.0026C28.2166 5.00233 26.6964 5.62369 25.5664 6.73295C24.4365 7.84221 23.7872 9.35071 23.7583 10.9338L23.7 14.2151C23.6966 14.3913 23.6559 14.5647 23.5808 14.7241C23.5056 14.8835 23.3976 15.0252 23.2638 15.1398C23.13 15.2545 22.9735 15.3396 22.8046 15.3896C22.6356 15.4395 22.4579 15.4532 22.2833 15.4297L19.0291 14.988C14.7521 14.4047 10.6521 12.4338 6.71665 9.15676C5.4729 16.0526 7.90415 20.8297 13.7646 24.5151L17.4041 26.8026C17.5772 26.9111 17.721 27.0603 17.8231 27.2373C17.9251 27.4142 17.9822 27.6135 17.9894 27.8176C17.9966 28.0218 17.9536 28.2245 17.8643 28.4082C17.775 28.5919 17.642 28.7509 17.4771 28.8713L14.1604 31.2943C16.1333 31.4172 18.0062 31.3297 19.5604 31.0213C29.3896 29.0588 35.925 21.663 35.925 9.46301C35.925 8.46718 33.8146 5.0026 29.8 5.0026ZM19.5916 10.8568C19.628 8.84854 20.256 6.89566 21.397 5.24264C22.538 3.58963 24.1412 2.30993 26.0061 1.56378C27.8709 0.817628 29.9144 0.638181 31.8807 1.04791C33.847 1.45763 35.6488 2.43832 37.0604 3.86718C38.5416 3.85677 39.8021 4.23177 42.6187 2.52343C41.9229 5.9401 41.5771 7.42343 40.0916 9.46301C40.0916 25.3838 30.3062 33.1255 20.375 35.1068C13.5687 36.4651 3.66665 34.2338 0.833313 31.2713C2.27706 31.1588 8.15206 30.5276 11.5479 28.0422C8.6729 26.1463 -2.76044 19.4172 4.75415 1.3276C8.28123 5.44635 11.8583 8.25051 15.4833 9.73801C17.8937 10.7276 18.4875 10.7088 19.5937 10.8588" fill="black"/>
</svg>
