<svg width="42" height="42" viewBox="0 0 42 42" fill="none" xmlns="http://www.w3.org/2000/svg">
<path d="M35.5209 6.06238C33.6109 4.13306 31.3358 2.60335 28.8284 1.56249C26.3211 0.521618 23.6315 -0.00957771 20.9167 -0.000120037C9.54169 -0.000120037 0.270854 9.27071 0.270854 20.6457C0.270854 24.2915 1.22919 27.8332 3.02085 30.9582L0.104187 41.6665L11.0417 38.7915C14.0625 40.4374 17.4584 41.3124 20.9167 41.3124C32.2917 41.3124 41.5625 32.0415 41.5625 20.6665C41.5625 15.1457 39.4167 9.95821 35.5209 6.06238ZM20.9167 37.8124C17.8334 37.8124 14.8125 36.979 12.1667 35.4165L11.5417 35.0415L5.04169 36.7499L6.77085 30.4165L6.35419 29.7707C4.64116 27.0352 3.73156 23.8733 3.72919 20.6457C3.72919 11.1874 11.4375 3.47905 20.8959 3.47905C25.4792 3.47905 29.7917 5.27071 33.0209 8.52071C34.6198 10.1123 35.8869 12.0054 36.7488 14.0903C37.6106 16.1753 38.0501 18.4105 38.0417 20.6665C38.0834 30.1249 30.375 37.8124 20.9167 37.8124ZM30.3334 24.979C29.8125 24.729 27.2709 23.479 26.8125 23.2915C26.3334 23.1249 26 23.0415 25.6459 23.5415C25.2917 24.0624 24.3125 25.229 24.0209 25.5624C23.7292 25.9165 23.4167 25.9582 22.8959 25.6874C22.375 25.4374 20.7084 24.8749 18.75 23.1249C17.2084 21.7499 16.1875 20.0624 15.875 19.5415C15.5834 19.0207 15.8334 18.7499 16.1042 18.479C16.3334 18.2499 16.625 17.8749 16.875 17.5832C17.125 17.2915 17.2292 17.0624 17.3959 16.729C17.5625 16.3749 17.4792 16.0832 17.3542 15.8332C17.2292 15.5832 16.1875 13.0415 15.7709 11.9999C15.3542 10.9999 14.9167 11.1249 14.6042 11.104H13.6042C13.25 11.104 12.7084 11.229 12.2292 11.7499C11.7709 12.2707 10.4375 13.5207 10.4375 16.0624C10.4375 18.604 12.2917 21.0624 12.5417 21.3957C12.7917 21.7499 16.1875 26.9582 21.3542 29.1874C22.5834 29.729 23.5417 30.0415 24.2917 30.2707C25.5209 30.6665 26.6459 30.604 27.5417 30.479C28.5417 30.3332 30.6042 29.229 31.0209 28.0207C31.4584 26.8124 31.4584 25.7915 31.3125 25.5624C31.1667 25.3332 30.8542 25.229 30.3334 24.979Z" fill="black"/>
</svg>
