<svg width="42" height="30" viewBox="0 0 42 30" fill="none" xmlns="http://www.w3.org/2000/svg">
<path d="M16.6666 21.0833L27.4791 14.8333L16.6666 8.58333V21.0833ZM40.7499 4.77083C41.0208 5.75 41.2083 7.0625 41.3333 8.72917C41.4791 10.3958 41.5416 11.8333 41.5416 13.0833L41.6666 14.8333C41.6666 19.3958 41.3333 22.75 40.7499 24.8958C40.2291 26.7708 39.0208 27.9792 37.1458 28.5C36.1666 28.7708 34.3749 28.9583 31.6249 29.0833C28.9166 29.2292 26.4374 29.2917 24.1458 29.2917L20.8333 29.4167C12.1041 29.4167 6.66661 29.0833 4.52077 28.5C2.64577 27.9792 1.43744 26.7708 0.916606 24.8958C0.645772 23.9167 0.458272 22.6042 0.333272 20.9375C0.187439 19.2708 0.124939 17.8333 0.124939 16.5833L-6.10352e-05 14.8333C-6.10352e-05 10.2708 0.333272 6.91667 0.916606 4.77083C1.43744 2.89583 2.64577 1.6875 4.52077 1.16667C5.49994 0.895833 7.29161 0.708333 10.0416 0.583333C12.7499 0.4375 15.2291 0.375 17.5208 0.375L20.8333 0.25C29.5624 0.25 34.9999 0.583333 37.1458 1.16667C39.0208 1.6875 40.2291 2.89583 40.7499 4.77083Z" fill="black"/>
</svg>
